RBDS011runT25_grf
version=1
nRows=18
nColumns=19
inDegrees=no
endheader
time	ground_force_r_vx	ground_force_r_vy	ground_force_r_vz	ground_force_r_px	ground_force_r_py	ground_force_r_pz	ground_force_r_mx	ground_force_r_my	ground_force_r_mz	ground_force_l_vx	ground_force_l_vy	ground_force_l_vz	ground_force_l_px	ground_force_l_py	ground_force_l_pz	ground_force_l_mx	ground_force_l_my	ground_force_l_mz
      7.49900000	      0.00000000	      0.00000000	      0.00000000	      0.00000000	      0.00000000	      0.00000000	      0.00000000	      0.00000000	      0.00000000	    162.17176717	   1033.66391556	     28.41840876	      2.02602337	      0.00000000	      0.98763698	      0.00000000	     12.99542384	      0.00000000
      7.50000000	      0.00000000	      0.00000000	      0.00000000	      0.00000000	      0.00000000	      0.00000000	      0.00000000	      0.00000000	      0.00000000	    162.87637295	   1015.55899611	     27.77096512	      2.02380956	      0.00000000	      0.98768897	      0.00000000	     12.88798732	      0.00000000
      7.50100000	      0.00000000	      0.00000000	      0.00000000	      0.00000000	      0.00000000	      0.00000000	      0.00000000	      0.00000000	      0.00000000	    163.24440664	    997.30334242	     27.16457841	      2.02161967	      0.00000000	      0.98774637	      0.00000000	     12.77204014	      0.00000000
      7.50200000	      0.00000000	      0.00000000	      0.00000000	      0.00000000	      0.00000000	      0.00000000	      0.00000000	      0.00000000	      0.00000000	    163.61244033	    979.04768872	     26.55819169	      2.01942977	      0.00000000	      0.98780378	      0.00000000	     12.65609295	      0.00000000
      7.50300000	      0.00000000	      0.00000000	      0.00000000	      0.00000000	      0.00000000	      0.00000000	      0.00000000	      0.00000000	      0.00000000	    163.98047402	    960.79203503	     25.95180497	      2.01723988	      0.00000000	      0.98786119	      0.00000000	     12.54014577	      0.00000000
      7.50400000	      0.00000000	      0.00000000	      0.00000000	      0.00000000	      0.00000000	      0.00000000	      0.00000000	      0.00000000	      0.00000000	    164.12281275	    942.50718373	     25.37387521	      2.01506965	      0.00000000	      0.98792273	      0.00000000	     12.41886133	      0.00000000
      7.50500000	      0.00000000	      0.00000000	      0.00000000	      0.00000000	      0.00000000	      0.00000000	      0.00000000	      0.00000000	      0.00000000	    164.15230401	    924.20773363	     24.81017391	      2.01290924	      0.00000000	      0.98798634	      0.00000000	     12.29490825	      0.00000000
      7.50600000	      0.00000000	      0.00000000	      0.00000000	      0.00000000	      0.00000000	      0.00000000	      0.00000000	      0.00000000	      0.00000000	    164.18179526	    905.90828353	     24.24647262	      2.01074883	      0.00000000	      0.98804995	      0.00000000	     12.17095518	      0.00000000
      7.50700000	      0.00000000	      0.00000000	      0.00000000	      0.00000000	      0.00000000	      0.00000000	      0.00000000	      0.00000000	      0.00000000	    164.09940425	    887.63014350	     23.69708692	      2.00859998	      0.00000000	      0.98811588	      0.00000000	     12.04459367	      0.00000000
      7.50800000	      0.00000000	      0.00000000	      0.00000000	      0.00000000	      0.00000000	      0.00000000	      0.00000000	      0.00000000	      0.00000000	    163.79324870	    869.39462362	     23.17633239	      2.00647426	      0.00000000	      0.98818646	      0.00000000	     11.91341528	      0.00000000
      7.50900000	      0.00000000	      0.00000000	      0.00000000	      0.00000000	      0.00000000	      0.00000000	      0.00000000	      0.00000000	      0.00000000	    163.48709315	    851.15910373	     22.65557786	      2.00434853	      0.00000000	      0.98825703	      0.00000000	     11.78223690	      0.00000000
      7.51000000	      0.00000000	      0.00000000	      0.00000000	      0.00000000	      0.00000000	      0.00000000	      0.00000000	      0.00000000	      0.00000000	    163.18093760	    832.92358385	     22.13482332	      2.00222281	      0.00000000	      0.98832761	      0.00000000	     11.65105852	      0.00000000
      7.51100000	      0.00000000	      0.00000000	      0.00000000	      0.00000000	      0.00000000	      0.00000000	      0.00000000	      0.00000000	      0.00000000	    162.54717254	    814.85908835	     21.65590768	      2.00013642	      0.00000000	      0.98840586	      0.00000000	     11.51368428	      0.00000000
      7.51200000	      0.00000000	      0.00000000	      0.00000000	      0.00000000	      0.00000000	      0.00000000	      0.00000000	      0.00000000	      0.00000000	    161.91340748	    796.79459285	     21.17699203	      1.99805003	      0.00000000	      0.98848410	      0.00000000	     11.37631005	      0.00000000
      7.51300000	      0.00000000	      0.00000000	      0.00000000	      0.00000000	      0.00000000	      0.00000000	      0.00000000	      0.00000000	      0.00000000	    161.27964242	    778.73009735	     20.69807639	      1.99596364	      0.00000000	      0.98856235	      0.00000000	     11.23893582	      0.00000000
      7.51400000	      0.00000000	      0.00000000	      0.00000000	      0.00000000	      0.00000000	      0.00000000	      0.00000000	      0.00000000	      0.00000000	    160.43632560	    760.84956361	     20.24544285	      1.99390613	      0.00000000	      0.98864612	      0.00000000	     11.09825821	      0.00000000
      7.51500000	      0.00000000	      0.00000000	      0.00000000	      0.00000000	      0.00000000	      0.00000000	      0.00000000	      0.00000000	      0.00000000	    159.48823290	    743.06101074	     19.80595036	      1.99186305	      0.00000000	      0.98873264	      0.00000000	     10.95592891	     -0.00000000
      7.51600000	      0.00000000	      0.00000000	      0.00000000	      0.00000000	      0.00000000	      0.00000000	      0.00000000	      0.00000000	      0.00000000	    158.54014021	    725.27245788	     19.36645786	      1.98981998	      0.00000000	      0.98881917	      0.00000000	     10.81359962	     -0.00000000
